<svg width="1088" height="827" viewBox="0 0 1088 827" fill="none" xmlns="http://www.w3.org/2000/svg">
<g clip-path="url(#clip0)">
<path d="M934.987 329.388C887.167 141.348 721.934 5.61004 527.985 0.165699C425.451 -2.71256 317.556 31.2936 239 150.294C98.5735 363.019 247.63 510.019 351.548 579.87C401.752 613.685 446.99 654.344 485.95 700.67C556.143 783.966 691.179 887.472 852 725.294C968.564 607.746 966.84 454.64 934.987 329.388Z" fill="#F2F2F2"/>
<path opacity="0.1" d="M719.6 507.394L818 409.294L719.6 311.194L749.6 281.294L878 409.294L749.6 537.294L719.6 507.394Z" fill="black"/>
<path opacity="0.1" d="M438.6 416.294H478.6V376.294H438.6V416.294ZM639.4 376.294H599.4V416.294H639.4V376.294ZM519 416.294H559V376.294H519V416.294Z" fill="black"/>
<path opacity="0.1" d="M384.4 506.394L285.9 408.294L384.3 310.194L354.3 280.294L226 408.294L354.4 536.294L384.4 506.394Z" fill="black"/>
<path d="M1088 752.294C1088 768.862 844.443 826.294 544 826.294C243.557 826.294 0 768.862 0 752.294C0 735.725 243.557 766.294 544 766.294C844.443 766.294 1088 735.725 1088 752.294Z" fill="#3F3D56"/>
<path opacity="0.1" d="M1088 752.294C1088 768.862 844.443 826.294 544 826.294C243.557 826.294 0 768.862 0 752.294C0 735.725 243.557 766.294 544 766.294C844.443 766.294 1088 735.725 1088 752.294Z" fill="black"/>
<path d="M544 782.294C844.443 782.294 1088 768.862 1088 752.294C1088 735.725 844.443 722.294 544 722.294C243.557 722.294 0 735.725 0 752.294C0 768.862 243.557 782.294 544 782.294Z" fill="#3F3D56"/>
<path d="M865.533 382.853C865.533 382.853 834.744 359.476 832.407 368.045C830.071 376.614 854.998 396.089 854.998 396.089L865.533 382.853Z" fill="#FFB9B9"/>
<path opacity="0.1" d="M865.533 382.853C865.533 382.853 834.744 359.476 832.407 368.045C830.071 376.614 854.998 396.089 854.998 396.089L865.533 382.853Z" fill="black"/>
<path d="M719.6 488.394L818 390.294L719.6 292.194L749.6 262.294L878 390.294L749.6 518.294L719.6 488.394Z" fill="#6C63FF"/>
<path d="M438.6 397.294H478.6V357.294H438.6V397.294ZM639.4 357.294H599.4V397.294H639.4V357.294ZM519 397.294H559V357.294H519V397.294Z" fill="#6C63FF"/>
<path d="M206.206 238.091C224.794 238.091 239.863 226.337 239.863 211.839C239.863 197.34 224.794 185.586 206.206 185.586C187.618 185.586 172.549 197.34 172.549 211.839C172.549 226.337 187.618 238.091 206.206 238.091Z" fill="#2F2E41"/>
<path d="M211.928 392.576C211.928 392.576 242.219 394.596 247.604 390.557C252.989 386.518 275.876 395.942 277.895 401.327C279.914 406.712 245.584 407.385 240.199 407.385C234.814 407.385 209.235 415.463 209.235 415.463L211.928 392.576Z" fill="#A0616A"/>
<path d="M149.552 706.138C149.552 706.138 135.435 741.738 142.801 746.034C150.166 750.331 227.502 747.262 227.502 747.262C227.502 747.262 240.392 739.282 225.661 733.758C225.661 733.758 213.385 733.145 205.406 728.234C197.427 723.324 188.22 714.117 188.22 714.117C188.22 714.117 187.607 700.614 182.696 703.683C181.227 704.651 179.977 705.916 179.026 707.395C178.074 708.875 177.443 710.538 177.172 712.276L149.552 706.138Z" fill="#2F2E41"/>
<path opacity="0.1" d="M149.552 706.138C149.552 706.138 135.435 741.738 142.801 746.034C150.166 750.331 227.502 747.262 227.502 747.262C227.502 747.262 240.392 739.282 225.661 733.758C225.661 733.758 213.385 733.145 205.406 728.234C197.427 723.324 188.22 714.117 188.22 714.117C188.22 714.117 187.607 700.614 182.696 703.683C181.227 704.651 179.977 705.916 179.026 707.395C178.074 708.875 177.443 710.538 177.172 712.276L149.552 706.138Z" fill="black"/>
<path d="M384.4 487.394L285.9 389.294L384.3 291.194L354.3 261.294L226 389.294L354.4 517.294L384.4 487.394Z" fill="#6C63FF"/>
<path d="M127.785 717.029C127.785 717.029 112.303 756.071 120.381 760.783C128.458 765.495 213.274 762.129 213.274 762.129C213.274 762.129 227.41 753.378 211.254 747.32C211.254 747.32 197.792 746.647 189.041 741.262C180.29 735.877 170.193 725.78 170.193 725.78C170.193 725.78 169.52 710.971 164.135 714.336C162.524 715.398 161.152 716.785 160.109 718.407C159.066 720.03 158.373 721.854 158.077 723.76L127.785 717.029Z" fill="#2F2E41"/>
<path d="M207.216 469.314L197.792 554.129C197.792 554.129 194.426 594.518 184.329 603.268C184.329 603.268 184.329 616.058 180.963 620.097L176.251 673.275C176.251 673.275 182.983 692.796 182.309 696.162C181.636 699.527 185.002 710.297 184.329 711.644C183.656 712.99 152.018 711.644 152.018 711.644L158.75 603.268L179.617 452.486L207.216 469.314Z" fill="#2F2E41"/>
<path opacity="0.1" d="M207.216 469.314L197.792 554.129C197.792 554.129 194.426 594.518 184.329 603.268C184.329 603.268 184.329 616.058 180.963 620.097L176.251 673.275C176.251 673.275 182.983 692.796 182.309 696.162C181.636 699.527 185.002 710.297 184.329 711.644C183.656 712.99 152.018 711.644 152.018 711.644L158.75 603.268L179.617 452.486L207.216 469.314Z" fill="black"/>
<path d="M190.387 466.621C190.387 466.621 182.983 535.955 179.617 550.764C177.501 560.516 176.15 570.419 175.578 580.382C175.578 580.382 174.905 601.922 168.847 607.98C167.074 609.735 165.681 611.836 164.755 614.152C163.829 616.468 163.388 618.95 163.462 621.443C163.462 621.443 157.403 689.43 160.769 697.508C164.135 705.585 167.5 712.317 164.135 717.702C160.769 723.087 123.746 723.087 123.746 719.048C123.746 715.009 123.746 711.644 121.727 709.624C119.708 707.605 121.727 694.815 121.727 694.815C121.727 694.815 113.649 634.906 121.054 617.404C128.458 599.903 131.824 552.11 131.824 552.11C131.824 552.11 126.439 497.586 119.708 488.835C112.976 480.084 121.054 449.12 121.054 449.12L190.387 466.621Z" fill="#2F2E41"/>
<path d="M171.436 251.312C172.218 253.095 174.091 254.087 175.796 255.027C185.679 260.471 193.952 268.365 202.103 276.168C200.069 269.276 200.502 261.891 203.328 255.284C204.301 253.03 205.576 250.608 204.881 248.254C204.369 246.523 202.895 245.275 201.467 244.17C198.142 241.598 194.666 239.227 191.058 237.068C188.537 235.56 183.356 231.546 180.463 231.983C180.311 235.891 180.232 239.385 178.521 243.037C178.115 243.903 171.735 251.993 171.436 251.312Z" fill="#A0616A"/>
<path d="M205.869 259.968C221.112 259.968 233.468 247.612 233.468 232.369C233.468 217.127 221.112 204.771 205.869 204.771C190.627 204.771 178.271 217.127 178.271 232.369C178.271 247.612 190.627 259.968 205.869 259.968Z" fill="#A0616A"/>
<path d="M207.216 297.664C207.216 297.664 211.928 274.104 198.465 266.026C185.002 257.949 169.52 248.525 169.52 248.525C169.52 248.525 164.808 247.852 162.788 257.949C162.788 257.949 124.42 265.353 120.381 301.703C116.342 338.052 123.073 391.23 123.073 391.23C123.073 391.23 117.015 437.677 109.611 462.583C109.611 462.583 103.552 467.968 130.478 459.89C157.403 451.812 204.523 482.777 204.523 482.777C204.523 482.777 209.235 478.065 209.235 474.699C209.235 471.333 214.62 451.812 214.62 451.812C214.62 451.812 219.332 369.016 221.352 359.592C223.371 350.169 213.274 299.01 207.216 297.664Z" fill="#575A89"/>
<path d="M199.365 235.213C201.023 234.294 202.882 233.798 204.778 233.771C206.675 233.743 208.528 233.191 210.132 232.176C212.739 230.174 212.93 226.306 214.837 223.63C217.599 219.754 223.107 219.288 227.861 219.482C230.769 219.6 233.901 219.774 236.35 218.201C238.864 216.586 240.003 213.544 240.851 210.679C241.853 207.291 242.502 203.148 240.018 200.635C238.293 198.89 235.57 198.545 233.654 197.013C231.667 195.424 230.85 192.838 229.77 190.534C228.541 187.728 226.597 185.293 224.132 183.473C220.518 180.962 215.901 180.399 211.5 180.446C207.098 180.493 202.679 181.071 198.31 180.531C194.731 180.089 191.163 178.898 187.595 179.426C183.05 180.098 179.289 183.528 177.049 187.54C174.809 191.553 173.848 196.133 172.916 200.632L170.381 212.87C169.595 216.666 168.806 220.563 169.413 224.391C170.671 232.328 177.69 238.636 178.173 246.657C178.634 244.443 179.638 242.377 181.094 240.645C182.55 238.914 184.413 237.571 186.516 236.737C187.043 236.479 187.642 236.406 188.216 236.531C188.913 236.754 189.321 237.45 189.761 238.035C190.914 239.568 194.536 241.894 196.59 240.807C198.427 239.834 197.055 236.779 199.365 235.213Z" fill="#2F2E41"/>
<path d="M129.805 360.939C129.805 360.939 125.093 390.557 144.614 387.864C144.614 387.864 154.711 386.518 156.057 387.864C157.403 389.211 207.216 380.46 213.947 373.055C213.947 373.055 222.025 370.363 226.063 374.402C230.102 378.44 270.491 382.479 258.374 370.363C246.258 358.246 227.41 355.554 227.41 355.554L201.83 356.9C201.83 356.9 188.368 360.939 180.29 356.9C172.212 352.861 149.326 354.208 149.326 354.208L129.805 360.939Z" fill="#A0616A"/>
<path d="M157.403 267.373C157.403 267.373 127.112 270.738 127.112 314.492V370.363C127.112 370.363 143.941 362.958 147.306 363.631C150.672 364.304 164.135 354.881 164.135 354.881C164.135 354.881 179.617 318.531 178.271 308.434C176.924 298.337 177.598 268.719 157.403 267.373Z" fill="#575A89"/>
<path d="M205.869 228.667C220.182 228.667 231.785 222.64 231.785 215.204C231.785 207.769 220.182 201.742 205.869 201.742C191.556 201.742 179.953 207.769 179.953 215.204C179.953 222.64 191.556 228.667 205.869 228.667Z" fill="#2F2E41"/>
<path d="M181.636 240.11C186.655 240.11 190.724 230.014 190.724 217.56C190.724 205.106 186.655 195.01 181.636 195.01C176.618 195.01 172.549 205.106 172.549 217.56C172.549 230.014 176.618 240.11 181.636 240.11Z" fill="#2F2E41"/>
</g>
<defs>
<clipPath id="clip0">
<rect width="1088" height="826.294" fill="white"/>
</clipPath>
</defs>
</svg>
